<?xml version="1.0" standalone="no"?>
<!DOCTYPE svg PUBLIC "-//W3C//DTD SVG 20010904//EN"
 "http://www.w3.org/TR/2001/REC-SVG-20010904/DTD/svg10.dtd">
<svg version="1.0" xmlns="http://www.w3.org/2000/svg"
 width="2350.000000pt" height="1763.000000pt" viewBox="0 0 2350.000000 1763.000000"
 preserveAspectRatio="xMidYMid meet">

<g transform="translate(0.000000,1763.000000) scale(0.100000,-0.100000)"
fill="white" stroke="red">
<path d="M1193 17195 c-114 -31 -200 -100 -250 -203 l-28 -57 -5 -1120 -5
-1120 -230 -5 -230 -5 -65 -31 c-171 -81 -255 -266 -201 -440 36 -119 112
-199 230 -246 50 -20 78 -22 279 -26 l222 -4 0 -1104 c0 -1092 0 -1104 21
-1159 41 -110 134 -196 248 -229 49 -14 246 -16 1926 -16 2079 0 1924 -5 2032
67 61 40 104 91 136 160 l22 48 3 1118 2 1117 108 0 107 0 32 -93 c95 -279
425 -976 619 -1307 120 -206 295 -468 416 -625 111 -143 362 -399 472 -481 43
-33 113 -79 154 -105 l75 -45 63 -160 c258 -652 640 -1183 1059 -1470 108 -73
297 -172 373 -195 29 -8 44 -19 47 -33 2 -12 11 -66 21 -121 36 -215 114 -493
196 -700 94 -237 239 -474 398 -654 l93 -104 64 -186 c73 -211 135 -412 130
-418 -2 -2 -46 3 -98 12 -211 34 -394 30 -589 -12 -265 -57 -550 -243 -746
-486 -333 -414 -463 -969 -348 -1486 66 -296 334 -971 764 -1926 239 -529 214
-450 201 -636 -15 -220 -48 -373 -107 -490 -35 -70 -69 -105 -163 -167 -165
-109 -268 -235 -318 -386 -52 -160 -29 -346 64 -506 23 -39 81 -108 143 -171
86 -87 119 -113 184 -145 l80 -39 505 0 506 0 55 25 c69 30 939 726 982 784
66 90 93 207 69 303 -7 26 -107 298 -223 603 l-210 555 -13 130 c-18 168 -35
429 -35 517 0 61 2 69 18 64 106 -33 564 -104 817 -126 461 -41 1115 -24 1570
41 136 20 431 74 460 85 13 5 15 -9 15 -86 0 -108 -16 -335 -35 -510 l-14
-125 -216 -567 c-234 -617 -240 -636 -211 -746 31 -124 48 -141 530 -528 289
-232 463 -366 506 -387 l65 -32 483 -3 c422 -3 491 -1 540 13 139 41 326 211
411 375 102 196 105 379 9 569 -53 105 -154 212 -283 297 -105 70 -142 114
-184 224 -50 131 -71 254 -78 445 l-5 170 132 290 c468 1028 773 1790 840
2099 83 379 27 797 -155 1161 -86 171 -176 296 -310 430 -333 334 -724 455
-1218 379 -54 -9 -100 -14 -103 -12 -6 6 81 283 144 457 l55 155 89 100 c290
329 491 784 588 1331 12 66 23 129 25 140 3 14 21 26 57 39 81 28 259 120 343
176 281 190 519 451 749 820 101 164 251 465 330 664 l63 160 75 45 c219 133
456 361 670 642 96 128 263 383 372 569 193 330 524 1027 619 1307 l32 93 107
0 108 0 2 -1117 3 -1118 22 -48 c32 -69 75 -120 136 -160 108 -72 -48 -67
2033 -67 1850 0 1873 0 1937 20 112 35 191 111 240 231 l22 54 3 1101 3 1101
88 6 c149 11 243 59 316 161 135 190 61 455 -155 555 -44 20 -75 26 -152 29
l-98 4 0 1062 c0 583 -4 1089 -9 1123 -24 161 -128 277 -286 319 -41 11 -390
14 -1905 14 -1994 0 -1908 2 -2008 -49 -68 -35 -147 -127 -176 -205 -8 -22
-12 -355 -16 -1146 l-5 -1115 -119 -3 c-110 -2 -118 -1 -111 15 4 10 9 55 12
100 5 70 2 93 -17 145 -38 105 -93 169 -185 215 -70 36 -905 304 -969 311
-122 15 -225 -21 -310 -107 -46 -47 -87 -123 -277 -518 l-78 -163 -4511 0
-4510 0 -74 153 c-207 430 -229 471 -273 518 -82 88 -174 124 -295 117 -60 -3
-150 -29 -508 -147 -239 -78 -458 -153 -486 -167 -156 -75 -235 -263 -188
-450 l6 -25 -118 3 -119 3 -5 1115 c-4 791 -8 1124 -16 1146 -29 78 -108 170
-176 205 -100 51 -13 49 -2008 48 -1565 0 -1863 -3 -1907 -14z m927 -2875 l0
-2140 -235 0 -235 0 0 2133 c0 1174 3 2137 7 2140 3 4 109 7 235 7 l228 0 0
-2140z m1220 0 l0 -2140 -235 0 -235 0 0 2140 0 2140 235 0 235 0 0 -2140z
m1217 -2 l3 -2138 -235 0 -235 0 0 2140 0 2140 233 -2 232 -3 2 -2137z m15093
2 l0 -2140 -235 0 -235 0 0 2134 c0 1173 3 2136 7 2140 3 3 109 6 235 6 l228
0 0 -2140z m1220 0 l0 -2140 -235 0 -235 0 0 2140 0 2140 235 0 235 0 0 -2140z
m1220 0 l0 -2140 -235 0 -235 0 0 2140 0 2140 235 0 235 0 0 -2140z m-15514
274 c29 -65 38 -43 -87 -219 -96 -136 -119 -200 -119 -324 0 -310 161 -643
446 -923 153 -149 298 -254 539 -388 72 -40 150 -86 175 -103 420 -285 1003
-904 1574 -1672 155 -209 198 -252 288 -288 44 -17 69 -20 143 -17 218 8 317
3 405 -22 57 -17 85 -29 83 -39 0 -8 -33 -95 -71 -194 -122 -315 -230 -647
-313 -965 -32 -122 -33 -124 -41 -85 -20 95 -38 210 -53 345 -19 169 -39 223
-111 300 -59 63 -123 94 -249 121 -157 33 -267 82 -400 179 -308 226 -622 724
-816 1299 -46 136 -74 186 -133 238 -47 41 -52 44 -170 98 -380 171 -874 885
-1301 1882 l-79 183 37 122 c51 170 53 192 24 335 l-24 122 101 35 c56 19 107
35 114 35 7 1 24 -24 38 -55z m10734 25 c52 -17 98 -34 102 -38 4 -3 -2 -49
-14 -101 -31 -147 -28 -204 17 -353 l39 -127 -79 -183 c-337 -786 -744 -1443
-1071 -1729 -89 -78 -166 -128 -251 -164 -158 -65 -219 -133 -273 -299 -78
-244 -241 -598 -368 -798 -264 -417 -527 -635 -848 -703 -63 -13 -136 -35
-162 -48 -107 -55 -185 -171 -197 -295 -12 -116 -45 -343 -64 -431 -21 -97
-20 -98 -51 89 -57 343 -162 826 -229 1061 -22 74 -37 138 -35 142 11 17 154
30 254 23 202 -15 275 -2 364 67 25 18 113 125 204 248 565 755 1149 1376
1549 1648 33 22 118 73 188 112 246 138 376 231 529 379 197 192 316 370 394
593 44 123 62 222 62 336 0 126 -17 182 -83 277 -29 41 -74 106 -100 143 l-48
69 27 57 c16 31 33 56 39 56 5 0 53 -14 105 -31z m-745 -746 c-99 -181 -258
-320 -550 -483 -71 -40 -170 -99 -220 -133 -384 -257 -847 -711 -1346 -1317
-114 -139 -344 -432 -391 -498 -11 -16 -31 -20 -118 -26 -214 -15 -416 -67
-647 -167 -61 -27 -114 -49 -117 -49 -4 0 -6 102 -5 228 1 169 -3 251 -15 322
-53 304 -186 551 -399 738 -242 213 -545 324 -887 324 -515 -1 -959 -266
-1166 -697 -103 -214 -134 -379 -134 -708 l0 -216 -92 44 c-210 98 -471 168
-677 181 l-103 7 -47 60 c-387 506 -638 802 -951 1121 -377 385 -648 603 -975
786 -295 165 -451 301 -550 483 l-37 67 4732 0 4732 0 -37 -67z m-4528 -1827
c230 -62 360 -219 384 -461 17 -187 -15 -705 -57 -891 l-16 -73 -211 -225
c-179 -192 -216 -227 -246 -232 -26 -5 -44 -2 -67 12 -17 10 -121 114 -231
230 l-199 211 -17 79 c-35 159 -48 310 -54 609 -4 256 -3 310 11 369 49 207
204 344 434 386 61 11 202 4 269 -14z m1112 -1793 c113 -419 239 -1118 341
-1882 l31 -234 -27 -71 c-137 -365 -259 -792 -307 -1076 -12 -74 -26 -141 -31
-148 -4 -7 -232 -217 -505 -466 -274 -250 -507 -466 -519 -481 -85 -108 -102
-277 -40 -399 76 -149 263 -234 421 -193 86 23 130 53 303 212 88 79 162 145
167 145 4 0 7 -31 7 -69 0 -39 7 -123 15 -188 38 -291 120 -519 261 -730 35
-53 61 -100 57 -104 -12 -11 -280 -75 -413 -98 -729 -129 -1616 -113 -2275 41
-71 17 -140 33 -152 35 -13 3 -23 8 -22 12 0 3 30 31 66 61 184 155 383 442
493 713 13 31 27 57 31 57 4 0 30 -16 59 -35 69 -46 119 -60 215 -59 97 2 170
30 240 95 137 126 161 319 61 477 -14 23 -135 141 -268 263 -134 122 -256 235
-273 252 -16 16 -139 129 -272 250 -204 186 -243 225 -243 248 0 48 -49 293
-89 452 -50 194 -122 422 -206 657 l-67 185 7 125 c21 401 103 820 260 1325
41 134 166 486 202 573 l14 33 48 -40 48 -41 6 -292 c4 -226 10 -324 26 -427
102 -659 400 -1061 857 -1156 102 -21 285 -22 386 0 409 85 698 416 833 954
56 223 75 405 75 710 l0 226 78 62 c42 34 80 62 84 63 4 0 12 -17 17 -37z
m-1464 -829 c103 -26 296 -23 399 5 44 11 81 19 83 18 7 -8 -48 -179 -77 -240
-81 -171 -182 -232 -296 -176 -23 11 -54 36 -69 54 -41 55 -92 171 -119 273
-22 83 -23 92 -8 88 9 -3 49 -13 87 -22z m-2055 -2932 c123 -32 315 -100 352
-126 13 -9 114 -98 225 -199 225 -203 214 -185 188 -308 -24 -115 -55 -207
-101 -307 -41 -88 -124 -225 -145 -237 -5 -4 -40 26 -79 65 -50 50 -90 80
-136 102 -214 100 -458 -12 -519 -236 -36 -131 -6 -243 97 -367 64 -78 91
-145 150 -369 45 -175 48 -219 29 -410 -23 -222 -7 -649 39 -1050 l18 -165
170 -445 c94 -245 173 -452 177 -461 5 -13 -53 -64 -250 -223 l-257 -206 -181
0 -181 0 51 53 c179 185 302 464 358 817 22 136 32 554 16 631 -7 30 -72 187
-146 349 -517 1139 -805 1860 -845 2110 -36 229 27 497 165 706 102 153 261
276 395 304 85 18 284 4 410 -28z m4941 11 c195 -66 375 -270 460 -519 58
-170 73 -342 44 -505 -42 -243 -351 -1008 -849 -2102 -70 -153 -131 -301 -136
-329 -6 -28 -10 -126 -10 -218 0 -532 130 -954 377 -1220 l55 -60 -179 0 -180
0 -256 206 c-250 201 -256 206 -246 232 213 556 339 900 348 947 37 214 65
694 58 1010 l-5 260 31 40 c199 257 317 381 413 432 145 77 228 228 209 379
-9 72 -65 183 -116 229 -76 69 -207 112 -299 99 -94 -13 -238 -90 -356 -190
-35 -30 -66 -54 -69 -54 -10 0 -54 97 -74 165 -68 225 -66 537 4 879 47 226
42 217 111 243 239 94 518 125 665 76z"/>
</g>
</svg>
